<svg xmlns="http://www.w3.org/2000/svg" width="23.294" height="18" viewBox="0 0 23.294 18"><path d="M22.176,5.029A12.5,12.5,0,0,0,18.471,4.5a9.847,9.847,0,0,0-5.824,1.588A9.847,9.847,0,0,0,6.824,4.5,9.847,9.847,0,0,0,1,6.088V21.6a.569.569,0,0,0,.529.529c.106,0,.159-.053.265-.053a12.923,12.923,0,0,1,5.029-1.165A9.847,9.847,0,0,1,12.647,22.5a12.754,12.754,0,0,1,5.824-1.588A10.777,10.777,0,0,1,23.5,22.024a.477.477,0,0,0,.265.053.569.569,0,0,0,.529-.529V6.088A7.222,7.222,0,0,0,22.176,5.029Zm0,14.294a12.3,12.3,0,0,0-3.706-.529,12.754,12.754,0,0,0-5.824,1.588V8.206a12.754,12.754,0,0,1,5.824-1.588,12.3,12.3,0,0,1,3.706.529Z" transform="translate(-1 -4.5)" fill="#dec395"/><g transform="translate(12.706 4.765)"><path d="M17.765,10.588a12.382,12.382,0,0,1,2.647.275V9.254A14.3,14.3,0,0,0,17.765,9,12.184,12.184,0,0,0,13,9.879v1.758A9.83,9.83,0,0,1,17.765,10.588Z" transform="translate(-13 -9)" fill="#dec395"/><path d="M13,12.539V14.3a9.83,9.83,0,0,1,4.765-1.048,12.382,12.382,0,0,1,2.647.275V11.914a14.3,14.3,0,0,0-2.647-.254A12.379,12.379,0,0,0,13,12.539Z" transform="translate(-13 -8.844)" fill="#dec395"/><path d="M17.765,14.33A12.184,12.184,0,0,0,13,15.209v1.758a9.83,9.83,0,0,1,4.765-1.048,12.382,12.382,0,0,1,2.647.275V14.584A13.444,13.444,0,0,0,17.765,14.33Z" transform="translate(-13 -8.686)" fill="#dec395"/></g></svg>