<svg xmlns="http://www.w3.org/2000/svg" width="21.588" height="16.682" viewBox="0 0 21.588 16.682"><g transform="translate(-35.229 -18)"><path d="M21.479,4.991A11.584,11.584,0,0,0,18.044,4.5a9.126,9.126,0,0,0-5.4,1.472v15.21a11.82,11.82,0,0,1,5.4-1.472,9.988,9.988,0,0,1,4.661,1.03.442.442,0,0,0,.245.049.528.528,0,0,0,.491-.491V5.972A6.693,6.693,0,0,0,21.479,4.991Zm0,13.248a11.4,11.4,0,0,0-3.435-.491,11.82,11.82,0,0,0-5.4,1.472V7.935a11.82,11.82,0,0,1,5.4-1.472,11.4,11.4,0,0,1,3.435.491Z" transform="translate(33.376 13.5)" fill="#9e9087"/><g transform="translate(47.004 22.967)"><path d="M17.416,10.472a11.475,11.475,0,0,1,2.453.255V9.236A13.251,13.251,0,0,0,17.416,9,11.292,11.292,0,0,0,13,9.814v1.629A9.11,9.11,0,0,1,17.416,10.472Z" transform="translate(-13 -9)" fill="#9e9087"/><path d="M17.416,14.33A11.292,11.292,0,0,0,13,15.144v1.629a9.11,9.11,0,0,1,4.416-.971,11.475,11.475,0,0,1,2.453.255V14.566A12.46,12.46,0,0,0,17.416,14.33Z" transform="translate(-13 -10.026)" fill="#9e9087"/></g><path d="M14.61,4.991A11.583,11.583,0,0,1,18.044,4.5a9.126,9.126,0,0,1,5.4,1.472v15.21a11.819,11.819,0,0,0-5.4-1.472,9.987,9.987,0,0,0-4.661,1.03.442.442,0,0,1-.245.049.528.528,0,0,1-.491-.491V5.972A6.693,6.693,0,0,1,14.61,4.991Zm0,13.248a11.4,11.4,0,0,1,3.434-.491,11.819,11.819,0,0,1,5.4,1.472V7.935a11.819,11.819,0,0,0-5.4-1.472,11.4,11.4,0,0,0-3.434.491Z" transform="translate(22.582 13.5)" fill="#9e9087"/><g transform="translate(38.174 22.967)"><path d="M15.453,10.472A11.474,11.474,0,0,0,13,10.727V9.236A13.249,13.249,0,0,1,15.453,9a11.291,11.291,0,0,1,4.416.814v1.629A9.109,9.109,0,0,0,15.453,10.472Z" transform="translate(-13 -9)" fill="#9e9087"/><path d="M15.453,14.33a11.291,11.291,0,0,1,4.416.814v1.629a9.109,9.109,0,0,0-4.416-.971A11.474,11.474,0,0,0,13,16.057V14.566A12.458,12.458,0,0,1,15.453,14.33Z" transform="translate(-13 -10.026)" fill="#9e9087"/></g></g></svg>