<svg xmlns="http://www.w3.org/2000/svg" width="20" height="18" viewBox="0 0 20 18"><g transform="translate(-2 -3)"><path d="M20,3H4A2.006,2.006,0,0,0,2,5V19a2.006,2.006,0,0,0,2,2H20a2.006,2.006,0,0,0,2-2V5A2.006,2.006,0,0,0,20,3Zm0,16H4V5H20Z" fill="#9e9087" fill-rule="evenodd"/><path d="M19.41,10.42,17.99,9l-3.17,3.17-1.41-1.42L12,12.16,14.82,15Z" fill="#9e9087" fill-rule="evenodd"/><rect width="5" height="2" transform="translate(5 7)" fill="#9e9087"/><rect width="5" height="2" transform="translate(5 11)" fill="#9e9087"/><rect width="5" height="2" transform="translate(5 15)" fill="#9e9087"/></g></svg>