<svg xmlns="http://www.w3.org/2000/svg" width="35.685" height="30.385" viewBox="0 0 35.685 30.385">
  <g id="tamayyuz" transform="translate(-31.2 -20.75)">
    <path id="Path_2763" data-name="Path 2763" d="M340.826,575.775l1.507-2.185c.479.489.864.939,1.309,1.321a.885.885,0,0,1,.185,1.356c-.5.7-.973,1.4-1.546,2.106.029-1.213-1.287-1.206-1.652-2.126l-1.575,2.213a8.289,8.289,0,0,0-1-1.118c-.88-.678-.94-.875-.291-1.817a21.185,21.185,0,0,1,1.387-1.835C339.146,574.885,340.427,574.893,340.826,575.775Z" transform="translate(-291.999 -527.325)" fill="#dec395"/>
    <path id="Path_2764" data-name="Path 2764" d="M166.066,110.1a48.3,48.3,0,0,1-4.841,2.12c-2.311.843-4.776,1.472-6.7,3-2.419,1.922-3.629,4.986-4.33,8a43.173,43.173,0,0,1,.636-7.124,1.7,1.7,0,0,1-1.753.6,4.571,4.571,0,0,1-1.73-.9,44.178,44.178,0,0,1-6.543-6.214c-.606-.671-.806-.058-.889.6-.106.852-.214,1.7-.323,2.555q-.321,2.557-.643,5.115a2.342,2.342,0,0,0,0,.832,2.478,2.478,0,0,0,.714,1.058,26.209,26.209,0,0,1,4.253,5.928,12.855,12.855,0,0,0-3.083-5.712,2.354,2.354,0,0,1-.634-.91,2.154,2.154,0,0,1,0-.859q.484-3.619.97-7.239a25.378,25.378,0,0,1,5.465,9.986,17.353,17.353,0,0,1-.671,11.249,22.87,22.87,0,0,0,6.382-11.731,26.378,26.378,0,0,1-.408,4.175,8.446,8.446,0,0,1-2.32,4.544q2.212-.75,4.426-1.5c2.657-.9,5.507-1.949,7.048-4.293,2.071-3.15,1.037-7.49,2.652-10.9.145-.108.267.163.249.343q-.142,1.341-.283,2.682c-.177,1.655-.353,3.313-.678,4.947a10.025,10.025,0,0,1-1.942,4.631,6.1,6.1,0,0,1-2.422,1.721,2,2,0,0,0-.7.369.57.57,0,0,0-.125.719c1.972-.961,4.435-.6,6.3-1.744a6.209,6.209,0,0,0,2.194-2.562c2.373-4.689.952-10.608,3.288-15.315C168.44,108.892,167.26,109.514,166.066,110.1Zm-9.72,14.142c.424-2.274.834-4.553,1.286-6.82a8.726,8.726,0,0,1,.588-1.433C158.626,118.126,157.666,122.636,156.346,124.246Z" transform="translate(-102.733 -83.481)" fill="#dec395"/>
    <path id="Path_2765" data-name="Path 2765" d="M302.19,160.578c-.011.022-.024.047-.038.069a1.707,1.707,0,0,1-1.674,1.079,1.675,1.675,0,0,1-.83-.281,2.615,2.615,0,0,1-.875-1.2c-.023-.057-.044-.115-.062-.174a2.88,2.88,0,0,1,.337-2.363,1.678,1.678,0,0,1,1.584-.9,1.826,1.826,0,0,1,1.574,1.165c.022.048.043.091.063.139v0A2.817,2.817,0,0,1,302.19,160.578Z" transform="translate(-255.049 -129.779)" fill="#dec395"/>
    <path id="Path_2766" data-name="Path 2766" d="M86.688,142.1v0c-1.439-1.727-3.148-3.479-4.478-3.946L83.6,127.74a3.656,3.656,0,0,1,1.064,1.625l-1.053,8.444a22.776,22.776,0,0,1,3.264,3.333v0a15.729,15.729,0,0,1,2.731,4.839S88.32,144.056,86.688,142.1Z" transform="translate(-48.656 -102.052)" fill="#dec395"/>
    <path id="Path_2767" data-name="Path 2767" d="M40.712,154.573l-.163-.238a35.5,35.5,0,0,0-2.942-3.681q-.429-.472-.9-.948a35.312,35.312,0,0,0-5.511-4.565l1.385-10.412a3.639,3.639,0,0,1,1.064,1.625q-.494,4.408-.987,8.82a21.573,21.573,0,0,1,2.908,2.206,21.857,21.857,0,0,1,2.264,2.384,19.185,19.185,0,0,1,1.619,2.3,19.732,19.732,0,0,1,1.126,2.2C40.627,154.374,40.671,154.475,40.712,154.573Z" transform="translate(0 -108.72)" fill="#dec395"/>
    <path id="Path_2768" data-name="Path 2768" d="M602.79,23.3c.291-.989.54-1.833.75-2.547.607.315,1.114.622,1.656.847a.886.886,0,0,1,.6,1.231c-.253.816-.486,1.637-.812,2.483-.351-1.161-1.6-.743-2.233-1.5l-.805,2.594a8.3,8.3,0,0,0-1.3-.75c-1.047-.369-1.166-.538-.845-1.636a21.146,21.146,0,0,1,.744-2.176C600.916,22.975,602.135,22.583,602.79,23.3Z" transform="translate(-542.209 0)" fill="#dec395"/>
  </g>
</svg>
